<?xml version="1.0" encoding="iso-8859-1"?>
<!-- Uploaded to: SVG Repo, www.svgrepo.com, Generator: SVG Repo Mixer Tools -->
<!DOCTYPE svg PUBLIC "-//W3C//DTD SVG 1.1//EN" "http://www.w3.org/Graphics/SVG/1.1/DTD/svg11.dtd">
<svg height="800px" width="800px" version="1.1" id="Capa_1" xmlns="http://www.w3.org/2000/svg" xmlns:xlink="http://www.w3.org/1999/xlink" 
	 viewBox="0 0 58 58" xml:space="preserve">
<g>
	<polygon style="fill:#7383BF;" points="5,0 43,0 24,25 	"/>
	<polygon style="fill:#556080;" points="5,58 24,33 43,58 	"/>
	<path style="fill:#26B99A;" d="M47,30h-1c-0.553,0-1-0.447-1-1s0.447-1,1-1h1c0.553,0,1,0.447,1,1S47.553,30,47,30z M42,30h-1
		c-0.553,0-1-0.447-1-1s0.447-1,1-1h1c0.553,0,1,0.447,1,1S42.553,30,42,30z M37,30h-1c-0.553,0-1-0.447-1-1s0.447-1,1-1h1
		c0.553,0,1,0.447,1,1S37.553,30,37,30z M32,30h-1c-0.553,0-1-0.447-1-1s0.447-1,1-1h1c0.553,0,1,0.447,1,1S32.553,30,32,30z M27,30
		h-1c-0.553,0-1-0.447-1-1s0.447-1,1-1h1c0.553,0,1,0.447,1,1S27.553,30,27,30z M22,30h-1c-0.553,0-1-0.447-1-1s0.447-1,1-1h1
		c0.553,0,1,0.447,1,1S22.553,30,22,30z M17,30h-1c-0.553,0-1-0.447-1-1s0.447-1,1-1h1c0.553,0,1,0.447,1,1S17.553,30,17,30z M12,30
		h-1c-0.553,0-1-0.447-1-1s0.447-1,1-1h1c0.553,0,1,0.447,1,1S12.553,30,12,30z M7,30H6c-0.553,0-1-0.447-1-1s0.447-1,1-1h1
		c0.553,0,1,0.447,1,1S7.553,30,7,30z M2,30H1c-0.553,0-1-0.447-1-1s0.447-1,1-1h1c0.553,0,1,0.447,1,1S2.553,30,2,30z"/>
	<path style="fill:#AFB6BB;" d="M44.001,47.93c-0.086,0-0.173-0.011-0.26-0.034c-0.533-0.143-0.85-0.691-0.707-1.225l2.07-7.728
		c0.143-0.533,0.691-0.848,1.225-0.707c0.533,0.143,0.85,0.691,0.707,1.225l-2.07,7.728C44.847,47.635,44.442,47.93,44.001,47.93z"
		/>
	<path style="fill:#AFB6BB;" d="M51.729,50c-0.086,0-0.173-0.011-0.26-0.034l-7.728-2.07c-0.533-0.143-0.85-0.691-0.707-1.225
		s0.694-0.849,1.225-0.707l7.728,2.07c0.533,0.143,0.85,0.691,0.707,1.225C52.574,49.705,52.17,50,51.729,50z"/>
	<path style="fill:#AFB6BB;" d="M44,48c-0.415,0-0.803-0.26-0.945-0.675c-0.18-0.522,0.098-1.091,0.62-1.271l0.999-0.344
		C51.43,43.01,56,36.288,56,29s-4.569-14.011-11.371-16.728c-0.513-0.205-0.763-0.787-0.558-1.3s0.787-0.763,1.3-0.558
		C52.925,13.433,58,20.901,58,29c0,8.098-5.075,15.566-12.63,18.585l-1.045,0.36C44.218,47.982,44.107,48,44,48z"/>
</g>
</svg>